<?xml version="1.0" encoding="utf-8"?>
<!-- Generator: Adobe Illustrator 26.0.3, SVG Export Plug-In . SVG Version: 6.00 Build 0)  -->
<svg version="1.1" id="Calque_1" xmlns="http://www.w3.org/2000/svg" xmlns:xlink="http://www.w3.org/1999/xlink" x="0px" y="0px"
	 viewBox="0 0 1133.9 453.5" style="enable-background:new 0 0 1133.9 453.5;" xml:space="preserve">
<style type="text/css">
	.st0{fill:#504DE2;}
</style>
<g>
	<path class="st0" d="M455.4,197.3C455.4,197.3,455.4,197.3,455.4,197.3c12.3,1.4,23.5,6.8,32,15c4.3,4.1,11.2,4,15.4-0.1
		c10-9.7,23.7-15.7,38.7-15.8c9.9,0,19.2,2.5,27.3,7c2.5,1.4,5.6-0.3,5.6-3.2c0,0,0,0,0-0.1c-0.3-67-53-121.6-119.1-125.1V65
		c0-4.2-3.4-7.7-7.7-7.7c-4.2,0-7.7,3.4-7.7,7.7v10.2c-65.8,4.4-117.7,59.3-117.3,126.2c0,0,0,0,0,0.1c0,2.8,3.1,4.5,5.6,3.1
		c8.1-4.6,17.3-7.2,27.3-7.3c15.1-0.1,28.8,5.8,38.9,15.4c4.3,4.1,11.2,4,15.4-0.1c8.2-7.9,18.8-13.3,30.6-15.1
		C440.4,197.5,447.5,196.4,455.4,197.3z"/>
	<g>
		<path class="st0" d="M999.4,244.3c-4.1-1.2-6.5-5.5-7.1-12.9c-0.1-1.6-0.2-3.2-0.2-4.9c0-2.6,0.1-5.4,0.5-8.3
			c0.5-4.9,1.3-8.4,2.3-10.7c0.3-0.7,0.8-1.3,1.3-1.9c0.6-0.6,1.1-1,1.7-1.3c0.2-0.1,0.5-0.2,1-0.3c0.4-0.1,0.9-0.2,1.3-0.2
			c0.3,0,0.6,0,0.8,0c0.2,0,0.5,0,0.6,0c0.4,0.1,0.8,0.2,1.3,0.5c2.1,1.1,3.2,2.8,3.2,4.9c0,1-0.2,2-0.7,3.1c-0.2,0.5-0.4,1.1-0.6,2
			c-0.2,0.8-0.4,1.7-0.5,2.6c-0.1,0.9-0.2,2-0.3,3.3c-0.1,1.3-0.2,2.6-0.2,3.7c-0.1,1.1-0.1,2-0.1,2.8v1c0,0.9,0,1.4,0.1,1.4
			c0.1,0,0.5-0.6,1.1-1.8c0.7-1.2,1.4-2.6,2.2-4.2c0.8-1.6,1.4-3,2-4.2c0.3-0.8,0.7-1.6,1-2.2s0.6-1.1,0.8-1.4
			c1.1-1.3,2.4-1.9,4-1.9c0.4,0,0.8,0,1.2,0.1c2.5,0.3,4.6,3,6.3,7.9c1.7,4.6,3.4,7.8,5.1,9.5c0.2,0.2,0.4,0.3,0.5,0.5
			c0.2,0.1,0.3,0.2,0.3,0.2c0.3,0,0.5-0.6,0.7-1.8c0.2-1.2,0.2-2.3,0.3-3.4c0-1,0-1.7,0-2.1c0-1.4,0-2.8-0.1-4.2
			c-0.2-2.3-0.5-4.9-0.9-7.8c-0.4-2.9-0.7-5.1-1-6.6c-0.2-0.8-0.3-1.6-0.3-2.2v-0.4c0.1-0.7,0.3-1.2,0.8-1.7
			c0.7-0.9,1.6-1.3,2.7-1.3c0.1,0,0.3,0,0.5,0c1.2,0.1,2.1,0.7,2.8,1.7c0.7,1,1.3,2.7,1.8,5c0.7,3.2,1.4,6.6,2,10.2
			c0.6,3.6,1,6.2,1.2,7.9c0.1,1,0.1,2,0.1,2.9c0,1,0,2-0.1,2.9c-0.1,1.9-0.4,3.5-0.8,4.8c-0.5,1.6-1.4,3.1-2.5,4.5
			c-1.1,1.3-2.4,2.2-3.8,2.8c-1,0.4-2.2,0.6-3.4,0.6c-1.2,0-2.4-0.2-3.5-0.6c-4.1-1.7-7.7-5.5-10.7-11.3c-0.2-0.4-0.4-0.8-0.5-1
			c-0.1-0.3-0.2-0.5-0.3-0.6c-0.1-0.1-0.1-0.2-0.2-0.3c0,0-0.1-0.1-0.2-0.1c0,0-0.1,0-0.1,0c-0.1,0.1-0.3,0.5-0.6,1.4
			c-0.4,0.8-0.8,1.8-1.3,3c-0.8,1.8-1.4,3.3-1.9,4.3c-0.5,1-0.9,1.8-1.2,2.3c-0.3,0.5-0.7,1-1.1,1.4c-1,1-2,1.7-2.9,2
			c-1,0.3-1.8,0.5-2.4,0.5C1000.6,244.6,1000,244.5,999.4,244.3z"/>
		<path class="st0" d="M1044.4,261.5c-0.1-1.1-0.1-4.3-0.2-9.4c0-5.1-0.1-11-0.1-17.7v-3.6c0-4.4,0-8,0-10.8c0-2.8,0-5,0.1-6.6
			c0-1.6,0.1-2.8,0.2-3.6c0.1-0.8,0.3-1.4,0.5-1.7c0.2-0.3,0.5-0.7,0.9-1l0.3-0.3c0.8-0.8,1.6-1.3,2.4-1.4c0.4-0.1,0.9-0.3,1.6-0.5
			c0.7-0.2,1.4-0.5,2.1-0.8c2.8-1.1,5.6-1.7,8.4-1.7c0.7,0,1.3,0,2,0.1c3.5,0.4,6.7,1.8,9.5,4.3c2.8,2.8,4.4,5.3,4.6,7.6
			c0.2,2.3,0.3,3.7,0.3,4.3c0,3.4-0.9,6.9-2.8,10.5c-1.8,3.2-4.2,5.9-7.2,8.1c-3,2.2-6.1,3.7-9.5,4.3l-1.7,0.4v19.8
			c0,1.7-0.4,3.1-1.1,4.3c-0.7,1.2-1.6,1.9-2.4,2.3c-0.9,0.4-1.6,0.6-2.3,0.6c-0.4,0-0.9-0.1-1.3-0.2c-1.1-0.3-2.1-1.1-2.9-2.3
			C1045,265.3,1044.6,263.7,1044.4,261.5z M1058.3,229.2c1-0.5,2.1-1.4,3.3-2.5c1.2-1.1,2-2.3,2.6-3.4c0.5-1,0.9-1.9,1-2.8
			c0.1-0.8,0.2-1.5,0.2-2c0-0.5-0.1-1-0.2-1.3c-0.3-1.1-0.9-1.9-1.8-2.4s-1.9-0.8-2.9-0.8c-0.2,0-0.5,0-0.8,0
			c-0.5,0.1-1,0.2-1.6,0.3c-0.6,0.2-1.1,0.3-1.5,0.5c-0.4,0.2-0.7,0.3-0.8,0.4c0,0.2-0.1,0.9-0.1,2.4c0,1.4-0.1,3.1-0.1,5.1v3.4
			c0,1.1,0,1.9,0,2.5c0.1,0.8,0.2,1.3,0.4,1.3l0.2,0c0.3,0,0.7-0.2,1.3-0.5C1057.9,229.4,1058.1,229.3,1058.3,229.2z"/>
	</g>
	<path d="M495.4,264.3c-8.4,0-16.6,1.8-24.2,5.1v32.3c6.4-6.6,15-10.2,24.2-10.2c18.8,0,34.1,15.3,34.1,34.1
		c0,18.8-15.3,34.1-34.1,34.1c-18.8,0-34.1-15.3-34.1-34.1v-19.2c0,0,0,0,0,0v-31.7c0,0,0,0,0,0v-44.1c0-7.5-6.1-13.6-13.6-13.6
		c-7.5,0-13.6,6.1-13.6,13.6v95c0,33.8,27.5,61.3,61.3,61.3c33.8,0,61.3-27.5,61.3-61.3C556.6,291.7,529.1,264.3,495.4,264.3z"/>
	<path d="M981.8,386.8c8.4,0,16.6-1.8,24.2-5.1v-32.3c-6.4,6.6-15,10.2-24.2,10.2c-18.8,0-34.1-15.3-34.1-34.1
		c0-18.8,15.3-34.1,34.1-34.1c18.8,0,34.1,15.3,34.1,34.1v19.2c0,0,0,0,0,0v31.7c0,0,0,0,0,0V373c0,7.5,6.1,13.6,13.6,13.6
		c7.5,0,13.6-6.1,13.6-13.6v-47.4c0-33.8-27.5-61.3-61.3-61.3c-33.8,0-61.3,27.5-61.3,61.3C920.5,359.3,948,386.8,981.8,386.8z"/>
	<g>
		<path d="M838.4,386.7c-18.9,0-34.3-15.4-34.3-34.3V230.6c0-7.5,6.1-13.6,13.6-13.6c7.5,0,13.6,6.1,13.6,13.6v121.8
			c0,3.9,3.2,7.1,7.1,7.1c7.5,0,13.6,6.1,13.6,13.6S845.9,386.7,838.4,386.7z"/>
	</g>
	<g>
		<path d="M901.2,386.7c-18.9,0-34.3-15.4-34.3-34.3V230.6c0-7.5,6.1-13.6,13.6-13.6c7.5,0,13.6,6.1,13.6,13.6v121.8
			c0,3.9,3.2,7.1,7.1,7.1c7.5,0,13.6,6.1,13.6,13.6S908.7,386.7,901.2,386.7z"/>
	</g>
	<path d="M725.7,264.1c-33.8,0-61.2,27.5-61.2,61.2c0,33.8,27.5,61.2,61.2,61.2c13.6,0,26.4-4.4,37.2-12.6c6-4.6,7.1-13.1,2.5-19.1
		c-4.6-6-13.1-7.1-19.1-2.5c-0.5,0.4-1,0.6-1.5,0.9c-0.1,0.1-0.3,0.2-0.4,0.3c-5.6,3.7-12,5.8-18.8,5.8c-13.9,0-26-8.4-31.2-20.5
		h0.2c-1.9-4.2-2.9-8.8-2.9-13.7c0-4.8,1-9.3,2.8-13.5h-0.1c0.2-0.5,0.6-1,0.8-1.6c0.3-0.6,0.6-1.2,0.9-1.8c0.3-0.6,0.7-1.1,1-1.6
		c0.7-1.1,1.5-2.2,2.3-3.2c0.1-0.1,0.3-0.3,0.4-0.4c0.9-1,1.8-2,2.8-2.9c0.2-0.2,0.4-0.3,0.5-0.5c6-5.3,13.8-8.5,22.4-8.5
		c13.9,0,26,8.4,31.2,20.5h-11.2h-40.2c-2.6,3.9-4.1,8.5-4.1,13.5c0,5.1,1.6,9.8,4.3,13.7h39.9h11.3h16.5c7.5,0,13.6-6.1,13.6-13.6
		C786.9,291.6,759.4,264.1,725.7,264.1z"/>
	<g>
		<path d="M261.1,386.7c-7.5,0-13.6-6.1-13.6-13.6v-95.2c0-7.5,6.1-13.6,13.6-13.6c7.5,0,13.6,6.1,13.6,13.6v95.2
			C274.7,380.6,268.6,386.7,261.1,386.7z"/>
	</g>
	<g>
		<path d="M210.9,386.7c-7.5,0-13.6-6.1-13.6-13.6v-95.4c0-7.5,6.1-13.6,13.6-13.6c7.5,0,13.6,6.1,13.6,13.6v95.4
			C224.5,380.6,218.4,386.7,210.9,386.7z"/>
	</g>
	<path d="M363.2,264.1c-13.4,0-25.4,5.5-34.1,14.4c-8.7-8.9-20.7-14.4-34.1-14.4c-3.4,0-6.8,0.4-10,1.1V294c3-1.7,6.4-2.7,10-2.7
		c11.3,0,20.4,9.2,20.4,20.4v61.4c0,7.5,6.1,13.6,13.6,13.6c0,0,0,0,0.1,0s0,0,0.1,0c7.5,0,13.6-6.1,13.6-13.6v-61.4
		c0-11.3,9.2-20.4,20.4-20.4c11.3,0,20.4,9.2,20.4,20.4v61.4c0,7.5,6.1,13.6,13.6,13.6s13.6-6.1,13.6-13.6v-61.4
		C410.9,285.5,389.5,264.1,363.2,264.1z"/>
	<path d="M574.2,300.3v73c0,7.5,6.1,13.6,13.6,13.6c7.5,0,13.6-6.1,13.6-13.6v-67.7c17.3-21.9,37.8-15.1,40.3-14.1
		c6.9,2.8,14.8-0.6,17.6-7.5c2.8-7-0.5-14.9-7.4-17.7c-10.9-4.5-32-6.9-52.1,5c-2.3-4.3-6.8-7.2-11.9-7.2c-7.5,0-13.6,6.1-13.6,13.6
		v20.9V300.3z"/>
	<path d="M162.8,359.5c-18.8,0-34.1-15.3-34.1-34.1v-47.8c0-7.5-6.1-13.6-13.6-13.6c-7.5,0-13.6,6.1-13.6,13.6v47.8
		c0,33.8,27.5,61.3,61.3,61.3c8.4,0,16.4-1.7,23.8-4.8v-32.1C180.4,355.8,172,359.5,162.8,359.5z"/>
</g>
</svg>
