<svg id="Layer_1" enable-background="new 0 0 512 512" height="512" viewBox="0 0 512 512" width="512" xmlns="http://www.w3.org/2000/svg"><g><g><path  d="m256 0c-141.159 0-256 114.841-256 256s114.841 256 256 256 256-114.841 256-256-114.841-256-256-256zm144.33 277.959c-6.323.346-11.896-4.394-12.596-10.796-.644-5.891-4.275-25.113-23.978-25.113-13.19 0-23.921 10.731-23.921 23.921 0 6.446-5.093 11.76-11.533 12.011-.155.006-.312.009-.465.009-6.239 0-11.486-4.905-11.977-11.176-.581-7.446-4.078-24.765-23.946-24.765-13.19 0-23.921 10.731-23.921 23.921v112.093c0 18.535-15.079 33.614-33.614 33.614h-8.66c-18.535 0-33.614-15.079-33.614-33.614v-21.614c0-6.627 5.373-12 12-12s12 5.373 12 12v21.614c0 5.301 4.313 9.614 9.614 9.614h8.66c5.302 0 9.614-4.313 9.614-9.614v-111.54c-.648-7.593-4.301-24.474-23.921-24.474-13.19 0-23.921 10.731-23.921 23.921 0 6.627-5.373 12-12 12s-12-5.373-12-12c0-13.19-10.73-23.921-23.921-23.921-12.858 0-23.585 10.45-23.913 23.294-.166 6.515-5.499 11.694-11.992 11.694-.065 0-.13 0-.195-.001-6.582-.105-11.851-5.493-11.809-12.075.264-41.373 16.573-80.228 45.924-109.406 26.538-26.382 60.926-42.049 97.865-44.821.779-5.875 5.795-10.412 11.883-10.412s11.105 4.538 11.883 10.414c80.314 6.09 143.8 73.387 143.8 155.234.002 6.374-4.982 11.641-11.346 11.988z"/><path d="m255.994 134.287c-56.57 0-105.102 36.089-123.64 86.448 5.039-1.766 10.392-2.685 15.877-2.685 14.287 0 27.134 6.284 35.921 16.234 8.787-9.951 21.634-16.234 35.921-16.234 17.014 0 28.493 7.005 35.948 16.203 8.786-9.931 21.622-16.203 35.894-16.203 17.014 0 28.493 7.005 35.948 16.203 8.786-9.931 21.622-16.203 35.894-16.203 5.82 0 11.107.907 15.862 2.542-18.53-50.318-66.956-86.305-123.625-86.305z"/></g></g></svg>
