<svg viewBox="0 0 950 258" xmlns="http://www.w3.org/2000/svg"><defs><linearGradient y1="84.3779533%" x2="0" y2="0%" id="3"><stop stop-color="#f56640" offset="0%"/><stop stop-color="#f57840" offset="39.1082657%"/><stop stop-color="#ffbe54" offset="100%"/></linearGradient><linearGradient x1="50.000006%" y1="110.433207%" x2="50%" y2="-25.4443577%" id="2"><stop stop-color="#f56640" offset="0%"/><stop stop-color="#f57840" offset="8.37881088%"/><stop stop-color="#ffbe54" offset="100%"/></linearGradient><linearGradient y1="100%" x2="0" y2="32.5347067%" id="0"><stop stop-color="#f56640" offset="0%"/><stop stop-color="#f57840" offset="24.3858064%"/><stop stop-color="#ffbe54" offset="100%"/></linearGradient><linearGradient y1="98.3205782%" x2="0" y2="18.9773025%" id="1"><stop stop-color="#f56640" offset="0%"/><stop stop-color="#f57840" offset="18.1093204%"/><stop stop-color="#ffbe54" offset="100%"/></linearGradient></defs><g fill="none" fill-rule="evenodd"><path d="m107.5 133.1c-4.8 0-9.3-2.8-11.5-7.2l-3.8-8.5h-37.7l-3.8 8.5c-2.2 4.4-6.7 7.2-11.5 7.2h-2l16.1 122.7c.8 2.3 2.3 2.3 3.2 0l16-39.2 13.9 39.1c.8 2.3 2.3 2.3 3.2 0l18.6-122.5-.7-.1" fill="url(#0)"/><path d="m90.7 114h-34.6l-5.3 11.9c-1.8 3.6-5.3 6.2-9.1 6.9l12.2 75.7c.8 1.4 2.3 1.4 3.2 0l15.6-23.7 14.3 23.6c.9 1.4 2.3 1.4 3.2 0l13.8-75.8c-3.4-1-6.4-3.4-8-6.7l-5.3-11.9" fill="url(#1)"/><path d="m96 125.9l-22.7-50.7-22.6 50.7c-.8 1.5-1.8 2.8-3 3.9l9.4 50.3c.5.7 1.8.9 2.7 0l12.6-16.7 12.6 16.6c.8 1 2.2.8 2.7 0l10.4-50.9c-.8-1-1.5-2-2.1-3.2" fill="url(#2)"/><path d="m96 125.9l-22.7-50.7-22.6 50.7c-.8 1.5-1.8 2.8-3 3.9l9.4 50.3c.5.7 1.8.9 2.7 0l12.6-16.7 12.6 16.6c.8 1 2.2.8 2.7 0l10.4-50.9c-.8-1-1.5-2-2.1-3.2" fill="url(#3)" opacity=".5"/><g fill="#f56640"><path d="m.9 6.2c-.7-2.4.7-4.1 3.1-4.1h19.9c1.4 0 2.7 1.2 3.1 2.4l14.6 57.5h.7l26.3-59.7c.5-1 1.5-1.9 2.9-1.9h3.1c1.5 0 2.5.8 2.9 1.9l26.3 59.7h.7l14.6-57.5c.3-1.2 1.7-2.4 3.1-2.4h19.9c2.4 0 3.7 1.7 3.1 4.1l-32.1 114c-.3 1.4-1.7 2.4-3.1 2.4h-2.7c-1.2 0-2.4-.8-2.9-1.9l-31.1-69.4h-.5l-30.9 69.4c-.5 1-1.7 1.9-2.9 1.9h-2.7c-1.4 0-2.7-1-3.1-2.4l-32.3-114"/><path d="m162.9 5.3c0-1.7 1.4-3.2 3.2-3.2h40.9c20.9 0 38 17 38 37.5 0 21-17.1 38.2-37.8 38.2h-17.8v39.9c0 1.7-1.5 3.2-3.2 3.2h-20c-1.9 0-3.2-1.5-3.2-3.2v-112.4h-.1m42.6 47.7c7.3 0 13.4-5.8 13.4-13.4 0-7.1-6.1-12.6-13.4-12.6h-16.1v26h16.1"/></g><g fill="#0e1b23"><path d="m300.3 5.3c0-1.7 1.4-3.2 3.2-3.2h50.7c20.4 0 37 16.5 37 36.7 0 15.6-10.3 28.2-25.1 34.1l23.2 43.1c1.2 2.2 0 4.9-2.9 4.9h-22.6c-1.4 0-2.4-.8-2.7-1.5l-22.6-45h-11.7v43.3c0 1.7-1.5 3.2-3.2 3.2h-20.2c-1.9 0-3.2-1.5-3.2-3.2l.1-112.4m51.8 47.5c7 0 12.9-6.4 12.9-13.6 0-7.1-5.9-12.9-12.9-12.9h-25.1v26.5h25.1"/><path d="m466.3.4c33.9 0 61.1 27.3 61.1 61.3 0 34-27.1 60.9-61.1 60.9-33.9 0-60.9-27-60.9-60.9 0-33.9 27-61.3 60.9-61.3m0 95c18.7 0 33.9-15.3 33.9-33.8 0-18.7-15.3-34.1-33.9-34.1-18.5 0-33.8 15.4-33.8 34.1 0 18.5 15.3 33.8 33.8 33.8"/><path d="m600.5.4c17 0 29.5 5.3 41.1 15.8 1.5 1.4 1.5 3.4.2 4.7l-13.2 13.7c-1.2 1.2-3.1 1.2-4.2 0-6.3-5.6-14.6-8.7-22.9-8.7-19.2 0-33.3 16-33.3 35 0 18.8 14.3 34.5 33.4 34.5 8 0 16.6-2.9 22.7-8.1 1.2-1 3.4-1 4.4.2l13.2 14.1c1.2 1.2 1 3.4-.2 4.6-11.5 11.2-26.1 16.5-41.2 16.5-33.9 0-61.3-27-61.3-60.9 0-33.9 27.4-61.4 61.3-61.4"/><path d="m662.1 6.2c0-2.2 1.7-4.1 4.1-4.1h19.9c2.2 0 4.1 1.9 4.1 4.1v44.6l37.7-47c.7-.8 2.2-1.7 3.2-1.7h21.4c3.2 0 4.9 3.7 3.1 6.3l-39.7 49.7 43.3 56.3c1.9 2.5 0 6.3-3.2 6.3h-23.4c-1.2 0-2.7-.7-3.1-1.2l-39.4-53.3v50.6c0 2.2-1.9 4.1-4.1 4.1h-19.9c-2.4 0-4.1-1.9-4.1-4.1l.1-110.6"/><path d="m776.3 5.3c0-1.7 1.4-3.2 3.2-3.2h70.3c1.9 0 3.2 1.5 3.2 3.2v18.5c0 1.7-1.4 3.2-3.2 3.2h-47v21h38.7c1.7 0 3.2 1.5 3.2 3.2v18.5c0 1.9-1.5 3.2-3.2 3.2h-38.7v23h47c1.9 0 3.2 1.5 3.2 3.2v18.5c0 1.7-1.4 3.2-3.2 3.2h-70.3c-1.9 0-3.2-1.5-3.2-3.2v-112.3"/><path d="m891 27h-24.3c-1.9 0-3.2-1.5-3.2-3.2v-18.5c0-1.7 1.4-3.2 3.2-3.2h75.3c1.9 0 3.2 1.5 3.2 3.2v18.5c0 1.7-1.4 3.2-3.2 3.2h-24.3v90.6c0 1.7-1.5 3.2-3.2 3.2h-20.4c-1.7 0-3.2-1.5-3.2-3.2l.1-90.6"/></g><path d="m141.16 208.11c7.255 0 12.339-3.85 12.339-10.315v-.099c0-5.725-3.751-8.341-11.06-10.118-6.663-1.579-8.242-2.764-8.242-5.429v-.099c0-2.27 2.073-4.096 5.626-4.096 2.714 0 5.281.888 7.946 2.616.494.296.987.444 1.579.444 1.579 0 2.863-1.234 2.863-2.813 0-1.185-.642-2.024-1.333-2.418-3.109-2.073-6.613-3.208-10.957-3.208-6.86 0-11.796 4.096-11.796 10.02v.099c0 6.367 4.146 8.538 11.5 10.315 6.416 1.481 7.798 2.813 7.798 5.281v.099c0 2.566-2.369 4.343-6.12 4.343-3.751 0-6.811-1.283-9.673-3.554-.395-.296-.938-.543-1.777-.543-1.579 0-2.863 1.234-2.863 2.813 0 .987.494 1.826 1.185 2.32 3.85 2.863 8.292 4.343 12.98 4.343m41.951-23.838c0-1.678-1.382-3.01-3.01-3.01-1.678 0-3.01 1.333-3.01 3.01v11.993c0 4.047-2.418 6.416-5.873 6.416-3.554 0-5.577-2.27-5.577-6.317v-12.09c0-1.678-1.333-3.01-3.01-3.01-1.629 0-2.961 1.333-2.961 3.01v13.869c0 6.071 3.405 10.02 9.279 10.02 4.047 0 6.465-2.122 8.143-4.59v1.333c0 1.678 1.382 2.961 3.01 2.961 1.678 0 3.01-1.333 3.01-2.961v-20.63m7.453 28.527v-28.527c0-1.678 1.283-3.01 2.961-3.01 1.678 0 3.01 1.333 3.01 3.01v1.629c1.925-2.714 4.639-4.886 8.884-4.886 6.12 0 12.09 4.837 12.09 13.523v.099c0 8.637-5.923 13.523-12.09 13.523-4.343 0-7.06-2.172-8.884-4.59v9.229c0 1.678-1.333 2.961-3.01 2.961-1.629 0-2.961-1.283-2.961-2.961m13.424-9.822c4.096 0 7.453-3.208 7.453-8.341v-.099c0-5.03-3.405-8.341-7.453-8.341-4.047 0-7.601 3.356-7.601 8.341v.099c0 4.985 3.554 8.341 7.601 8.341m24.18-10.216h13.375c-.395-3.85-2.665-6.86-6.613-6.86-3.652 0-6.219 2.813-6.762 6.86m16.83 11.993c-2.369 2.122-5.33 3.455-9.377 3.455-7.551 0-13.375-5.478-13.375-13.523v-.099c0-7.453 5.281-13.572 12.733-13.572 8.292 0 12.388 6.811 12.388 12.832 0 1.678-1.283 2.863-2.813 2.863h-16.336c.642 4.244 3.652 6.613 7.502 6.613 2.517 0 4.491-.888 6.169-2.27.444-.345.839-.543 1.53-.543 1.333 0 2.369 1.036 2.369 2.418 0 .74-.345 1.382-.79 1.826m8.489.148c0 1.678 1.333 2.961 2.961 2.961 1.678 0 3.01-1.333 3.01-2.961v-7.699c0-6.169 2.912-9.427 7.156-10.167 1.333-.247 2.369-1.283 2.369-2.863 0-1.727-1.086-2.961-2.961-2.961-2.616 0-5.182 2.468-6.564 5.725v-2.665c0-1.678-1.333-3.01-3.01-3.01-1.678 0-2.961 1.333-2.961 3.01v20.63m20.285-30.06c0 1.777 1.481 2.961 3.405 2.961 1.925 0 3.405-1.185 3.405-2.961v-.296c0-1.777-1.481-2.912-3.405-2.912-1.925 0-3.405 1.135-3.405 2.912v.296m.444 30.06c0 1.678 1.333 2.961 2.961 2.961 1.678 0 3.01-1.283 3.01-2.961v-20.63c0-1.678-1.333-3.01-3.01-3.01-1.678 0-2.961 1.333-2.961 3.01v20.63m26.16 3.307c-7.946 0-13.819-6.071-13.819-13.474v-.099c0-7.453 5.923-13.622 13.918-13.622 7.995 0 13.869 6.071 13.869 13.523v.099c0 7.403-5.923 13.572-13.967 13.572m.099-5.232c4.837 0 7.897-3.751 7.897-8.242v-.099c0-4.59-3.307-8.39-7.995-8.39-4.787 0-7.847 3.751-7.847 8.292v.099c0 4.541 3.307 8.341 7.946 8.341m19.939 1.925c0 1.678 1.333 2.961 2.961 2.961 1.678 0 3.01-1.333 3.01-2.961v-7.699c0-6.169 2.912-9.427 7.156-10.167 1.333-.247 2.369-1.283 2.369-2.863 0-1.727-1.086-2.961-2.961-2.961-2.616 0-5.182 2.468-6.564 5.725v-2.665c0-1.678-1.333-3.01-3.01-3.01-1.678 0-2.961 1.333-2.961 3.01v20.63m43.975.691c.592 1.579 1.678 2.517 3.159 2.517h.592c1.481 0 2.616-.938 3.159-2.517l7.699-22.555 7.699 22.555c.543 1.579 1.629 2.517 3.109 2.517h.592c1.481 0 2.616-.987 3.159-2.517l10.216-28.626c.148-.345.296-.839.296-1.234 0-1.629-1.382-2.912-3.01-2.912-1.481 0-2.517.938-2.961 2.172l-7.946 23.789-7.798-23.641c-.444-1.431-1.53-2.418-3.06-2.418h-.444c-1.53 0-2.566.987-3.06 2.418l-7.798 23.641-7.946-23.739c-.395-1.283-1.53-2.221-3.01-2.221-1.678 0-3.109 1.283-3.109 2.961 0 .395.099.839.247 1.185l10.216 28.626m55.33 2.616c-7.946 0-13.819-6.071-13.819-13.474v-.099c0-7.453 5.923-13.622 13.918-13.622 7.995 0 13.869 6.071 13.869 13.523v.099c0 7.403-5.923 13.572-13.967 13.572m.099-5.232c4.837 0 7.897-3.751 7.897-8.242v-.099c0-4.59-3.307-8.39-7.995-8.39-4.787 0-7.847 3.751-7.847 8.292v.099c0 4.541 3.307 8.341 7.946 8.341m19.939 1.925c0 1.678 1.333 2.961 2.961 2.961 1.678 0 3.01-1.333 3.01-2.961v-7.699c0-6.169 2.912-9.427 7.156-10.167 1.333-.247 2.369-1.283 2.369-2.863 0-1.727-1.086-2.961-2.961-2.961-2.616 0-5.182 2.468-6.564 5.725v-2.665c0-1.678-1.333-3.01-3.01-3.01-1.678 0-2.961 1.333-2.961 3.01v20.63m45.26-30.6v30.6c0 1.678-1.333 2.961-2.961 2.961-1.678 0-3.01-1.283-3.01-2.961v-1.629c-1.925 2.714-4.639 4.886-8.884 4.886-6.12 0-12.09-4.886-12.09-13.523v-.099c0-8.637 5.873-13.523 12.09-13.523 4.294 0 7.01 2.122 8.884 4.59v-11.302c0-1.678 1.333-2.961 2.961-2.961 1.678 0 3.01 1.283 3.01 2.961m-13.424 11.894c-4.096 0-7.502 3.159-7.502 8.341v.099c0 5.03 3.455 8.341 7.502 8.341 3.998 0 7.551-3.356 7.551-8.341v-.099c0-5.03-3.554-8.341-7.551-8.341m21.617 18.656v-28.724c0-1.727 1.333-3.06 3.06-3.06h10.562c8.094 0 13.13 4.59 13.13 11.549v.099c0 7.749-6.219 11.796-13.819 11.796h-6.86v8.341c0 1.678-1.333 3.01-3.01 3.01-1.727 0-3.06-1.333-3.06-3.01m6.071-13.819h7.06c4.59 0 7.453-2.566 7.453-6.169v-.099c0-4.047-2.912-6.169-7.453-6.169h-7.06v12.437m26.21 13.869c0 1.678 1.333 2.961 2.961 2.961 1.678 0 3.01-1.333 3.01-2.961v-7.699c0-6.169 2.912-9.427 7.156-10.167 1.333-.247 2.369-1.283 2.369-2.863 0-1.727-1.086-2.961-2.961-2.961-2.616 0-5.182 2.468-6.564 5.725v-2.665c0-1.678-1.333-3.01-3.01-3.01-1.678 0-2.961 1.333-2.961 3.01v20.63m23.986-12.141h13.375c-.395-3.85-2.665-6.86-6.613-6.86-3.652 0-6.219 2.813-6.762 6.86m16.83 11.993c-2.369 2.122-5.33 3.455-9.377 3.455-7.551 0-13.375-5.478-13.375-13.523v-.099c0-7.453 5.281-13.572 12.733-13.572 8.292 0 12.388 6.811 12.388 12.832 0 1.678-1.283 2.863-2.813 2.863h-16.336c.642 4.244 3.652 6.613 7.502 6.613 2.517 0 4.491-.888 6.169-2.27.444-.345.839-.543 1.53-.543 1.333 0 2.369 1.036 2.369 2.418 0 .74-.345 1.382-.79 1.826m17.422 3.356c5.429 0 9.673-2.714 9.673-8.193v-.099c0-4.689-4.294-6.416-8.094-7.601-3.06-.987-5.873-1.777-5.873-3.702v-.099c0-1.481 1.333-2.566 3.652-2.566 1.826 0 3.998.691 6.12 1.777.395.197.691.296 1.185.296 1.382 0 2.468-1.036 2.468-2.418 0-1.036-.592-1.826-1.431-2.27-2.517-1.333-5.429-2.122-8.193-2.122-5.182 0-9.279 3.01-9.279 7.946v.099c0 4.985 4.294 6.564 8.143 7.65 3.06.938 5.824 1.629 5.824 3.652v.099c0 1.727-1.481 2.813-4.047 2.813-2.369 0-4.985-.839-7.502-2.517-.345-.197-.79-.345-1.283-.345-1.382 0-2.418 1.086-2.418 2.418 0 .987.494 1.727 1.135 2.073 3.01 2.073 6.613 3.109 9.92 3.109m24.23 0c5.429 0 9.673-2.714 9.673-8.193v-.099c0-4.689-4.294-6.416-8.094-7.601-3.06-.987-5.873-1.777-5.873-3.702v-.099c0-1.481 1.333-2.566 3.652-2.566 1.826 0 3.998.691 6.12 1.777.395.197.691.296 1.185.296 1.382 0 2.468-1.036 2.468-2.418 0-1.036-.592-1.826-1.431-2.27-2.517-1.333-5.429-2.122-8.193-2.122-5.182 0-9.279 3.01-9.279 7.946v.099c0 4.985 4.294 6.564 8.143 7.65 3.06.938 5.824 1.629 5.824 3.652v.099c0 1.727-1.481 2.813-4.047 2.813-2.369 0-4.985-.839-7.502-2.517-.345-.197-.79-.345-1.283-.345-1.382 0-2.418 1.086-2.418 2.418 0 .987.494 1.727 1.135 2.073 3.01 2.073 6.613 3.109 9.92 3.109m31.29-3.257v-28.724c0-1.727 1.333-3.06 3.06-3.06h10.562c8.094 0 13.13 4.59 13.13 11.549v.099c0 7.749-6.219 11.796-13.819 11.796h-6.86v8.341c0 1.678-1.333 3.01-3.01 3.01-1.727 0-3.06-1.333-3.06-3.01m6.071-13.819h7.06c4.59 0 7.453-2.566 7.453-6.169v-.099c0-4.047-2.912-6.169-7.453-6.169h-7.06v12.437m30.452 1.727h13.375c-.395-3.85-2.665-6.86-6.613-6.86-3.652 0-6.219 2.813-6.762 6.86m16.83 11.993c-2.369 2.122-5.33 3.455-9.377 3.455-7.551 0-13.375-5.478-13.375-13.523v-.099c0-7.453 5.281-13.572 12.733-13.572 8.292 0 12.388 6.811 12.388 12.832 0 1.678-1.283 2.863-2.813 2.863h-16.336c.642 4.244 3.652 6.613 7.502 6.613 2.517 0 4.491-.888 6.169-2.27.444-.345.839-.543 1.53-.543 1.333 0 2.369 1.036 2.369 2.418 0 .74-.345 1.382-.79 1.826m8.489.148c0 1.678 1.333 2.961 2.961 2.961 1.678 0 3.01-1.333 3.01-2.961v-7.699c0-6.169 2.912-9.427 7.156-10.167 1.333-.247 2.369-1.283 2.369-2.863 0-1.727-1.086-2.961-2.961-2.961-2.616 0-5.182 2.468-6.564 5.725v-2.665c0-1.678-1.333-3.01-3.01-3.01-1.678 0-2.961 1.333-2.961 3.01v20.63m21.716 0c0 1.629 1.333 2.961 2.961 2.961 1.678 0 3.01-1.333 3.01-2.961v-18.212h4.541c1.382 0 2.517-1.086 2.517-2.468 0-1.382-1.086-2.468-2.517-2.468h-4.639v-1.431c0-2.714 1.185-3.948 3.455-3.948.395 0 .888.049 1.234.099 1.382.049 2.517-1.086 2.517-2.468 0-1.333-.987-2.32-2.073-2.468-.839-.148-1.826-.247-3.01-.247-2.566 0-4.491.691-5.873 2.073-1.382 1.382-2.122 3.554-2.122 6.416v1.925h-1.036c-1.382 0-2.517 1.135-2.517 2.517 0 1.382 1.135 2.468 2.517 2.468h1.036v18.212m29.12 3.307c-7.946 0-13.819-6.071-13.819-13.474v-.099c0-7.453 5.923-13.622 13.918-13.622 7.995 0 13.869 6.071 13.869 13.523v.099c0 7.403-5.923 13.572-13.967 13.572m.099-5.232c4.837 0 7.897-3.751 7.897-8.242v-.099c0-4.59-3.307-8.39-7.995-8.39-4.787 0-7.847 3.751-7.847 8.292v.099c0 4.541 3.307 8.341 7.946 8.341m19.939 1.925c0 1.678 1.333 2.961 2.961 2.961 1.678 0 3.01-1.333 3.01-2.961v-7.699c0-6.169 2.912-9.427 7.156-10.167 1.333-.247 2.369-1.283 2.369-2.863 0-1.727-1.086-2.961-2.961-2.961-2.616 0-5.182 2.468-6.564 5.725v-2.665c0-1.678-1.333-3.01-3.01-3.01-1.678 0-2.961 1.333-2.961 3.01v20.63m20.383 0c0 1.678 1.333 2.961 2.961 2.961 1.678 0 3.01-1.283 3.01-2.961v-11.993c0-3.998 2.27-6.465 5.577-6.465 3.307 0 5.281 2.27 5.281 6.317v12.141c0 1.678 1.333 2.961 3.01 2.961 1.629 0 2.961-1.283 2.961-2.961v-11.993c0-4.195 2.32-6.465 5.577-6.465 3.356 0 5.281 2.221 5.281 6.367v12.09c0 1.678 1.333 2.961 3.01 2.961 1.678 0 2.961-1.283 2.961-2.961v-13.918c0-6.367-3.455-9.97-9.131-9.97-3.948 0-6.712 1.826-8.785 4.59-1.382-2.764-4.047-4.59-7.798-4.59-3.998 0-6.268 2.172-7.946 4.491v-1.234c0-1.678-1.333-3.01-3.01-3.01-1.678 0-2.961 1.333-2.961 3.01v20.63m54.39 3.257c-4.886 0-9.229-2.813-9.229-8.04v-.099c0-5.626 4.393-8.39 10.759-8.39 2.912 0 4.985.444 7.01 1.086v-.642c0-3.702-2.27-5.676-6.465-5.676-2.27 0-4.146.395-5.774 1.036-.345.099-.642.148-.938.148-1.382 0-2.517-1.086-2.517-2.468 0-1.086.74-2.024 1.629-2.369 2.468-.938 4.985-1.53 8.39-1.53 3.899 0 6.811 1.036 8.637 2.912 1.925 1.875 2.813 4.639 2.813 8.04v12.832c0 1.629-1.283 2.863-2.912 2.863-1.727 0-2.912-1.185-2.912-2.517v-.987c-1.777 2.122-4.491 3.8-8.489 3.8m1.678-4.343c3.948 0 6.959-2.27 6.959-5.577v-1.777c-1.53-.592-3.554-1.036-5.923-1.036-3.85 0-6.12 1.629-6.12 4.343v.099c0 2.517 2.221 3.948 5.083 3.948m19.791 1.086c0 1.678 1.333 2.961 2.961 2.961 1.678 0 3.01-1.283 3.01-2.961v-11.993c0-4.047 2.418-6.465 5.873-6.465 3.554 0 5.577 2.32 5.577 6.367v12.09c0 1.678 1.333 2.961 3.01 2.961 1.678 0 2.961-1.283 2.961-2.961v-13.918c0-6.02-3.405-9.97-9.279-9.97-4.047 0-6.465 2.122-8.143 4.541v-1.283c0-1.678-1.333-3.01-3.01-3.01-1.678 0-2.961 1.333-2.961 3.01v20.63m42.642 3.307c4.343 0 7.156-1.481 9.476-3.702.543-.444.839-1.086.839-1.875 0-1.431-1.135-2.616-2.566-2.616-.691 0-1.283.345-1.629.642-1.629 1.382-3.455 2.32-5.824 2.32-4.59 0-7.798-3.702-7.798-8.341v-.099c0-4.541 3.208-8.292 7.551-8.292 2.369 0 4.047.938 5.577 2.221.395.296 1.036.592 1.777.592 1.53 0 2.764-1.185 2.764-2.714 0-.987-.543-1.727-.938-2.073-2.221-1.925-5.03-3.257-9.131-3.257-7.847 0-13.572 6.219-13.572 13.622v.099c0 7.403 5.725 13.474 13.474 13.474m19.89-15.448h13.375c-.395-3.85-2.665-6.86-6.613-6.86-3.652 0-6.219 2.813-6.762 6.86m16.83 11.993c-2.369 2.122-5.33 3.455-9.377 3.455-7.551 0-13.375-5.478-13.375-13.523v-.099c0-7.453 5.281-13.572 12.733-13.572 8.292 0 12.388 6.811 12.388 12.832 0 1.678-1.283 2.863-2.813 2.863h-16.336c.642 4.244 3.652 6.613 7.502 6.613 2.517 0 4.491-.888 6.169-2.27.444-.345.839-.543 1.53-.543 1.333 0 2.369 1.036 2.369 2.418 0 .74-.345 1.382-.79 1.826" fill="#757575"/></g></svg>